<?xml version="1.0" encoding="UTF-8"?>
<svg width="307" height="125" version="1.1" viewBox="-2.8422e-14 0 307 125.48" xmlns="http://www.w3.org/2000/svg" xmlns:xlink="http://www.w3.org/1999/xlink">
<defs>
<path id="a" d="m294.11 98.72 0.64 0.07 0.61 0.09 0.57 0.11 0.54 0.12 0.5 0.14 0.47 0.14 0.44 0.14 0.4 0.15 0.36 0.14 0.33 0.13 0.3 0.12 0.25 0.11 0.22 0.09 0.19 0.07 0.15 0.05 0.55 0.31 0.51 0.32 0.48 0.34 0.44 0.34 0.41 0.35 0.37 0.34 0.35 0.34 0.31 0.34 0.28 0.32 0.26 0.31 0.22 0.29 0.21 0.27 0.18 0.24 0.16 0.22 0.13 0.18 0.12 0.14 0.1 0.11 0.21 0.36 0.2 0.37 0.18 0.37 0.17 0.38 0.16 0.39 0.15 0.39 0.13 0.39 0.12 0.4 0.11 0.41 0.1 0.41 0.08 0.42 0.07 0.43 0.06 0.43 0.04 0.43 0.03 0.44 0.02 0.45 0.01 0.45-0.02 0.67-0.04 0.64-0.08 0.6-0.09 0.57-0.12 0.54-0.13 0.51-0.14 0.48-0.15 0.44-0.16 0.41-0.15 0.37-0.15 0.35-0.14 0.31-0.14 0.27-0.11 0.24-0.1 0.21-0.07 0.17-0.05 0.14-0.33 0.52-0.35 0.49-0.36 0.45-0.37 0.41-0.37 0.38-0.37 0.35-0.36 0.33-0.36 0.29-0.34 0.27-0.33 0.23-0.31 0.22-0.29 0.19-0.26 0.17-0.22 0.15-0.2 0.13-0.15 0.1-0.11 0.1-0.78 0.38-0.4 0.17-0.4 0.16-0.41 0.15-0.41 0.13-0.42 0.13-0.43 0.11-0.43 0.1-0.44 0.09-0.45 0.08-0.9 0.12-0.47 0.04-0.47 0.03-0.47 0.01-0.48 0.01-0.76-0.18-0.72-0.16-0.68-0.16-0.64-0.15-0.6-0.14-0.56-0.13-0.51-0.12-0.48-0.11-0.43-0.1-0.4-0.09-0.35-0.08-0.31-0.07-0.27-0.07-0.23-0.05-0.19-0.04-0.15-0.04-0.11-0.02-0.55-0.32-0.52-0.32-0.48-0.34-0.44-0.34-0.41-0.35-0.38-0.34-0.34-0.35-0.32-0.33-0.28-0.32-0.26-0.31-0.23-0.29-0.2-0.27-0.18-0.25-0.16-0.21-0.14-0.18-0.11-0.15-0.1-0.11-0.21-0.36-0.2-0.37-0.18-0.37-0.17-0.38-0.16-0.38-0.15-0.39-0.13-0.4-0.12-0.4-0.11-0.4-0.1-0.42-0.08-0.42-0.07-0.42-0.06-0.43-0.04-0.44-0.03-0.44-0.02-0.45-0.01-0.45 0.02-0.67 0.04-0.63 0.08-0.61 0.1-0.57 0.11-0.54 0.13-0.51 0.14-0.47 0.16-0.44 0.15-0.41 0.15-0.38 0.15-0.34 0.15-0.31 0.13-0.28 0.11-0.24 0.1-0.21 0.07-0.17 0.05-0.14 0.33-0.52 0.35-0.48 0.36-0.45 0.37-0.42 0.37-0.38 0.37-0.35 0.37-0.32 0.35-0.29 0.35-0.27 0.33-0.24 0.31-0.21 0.29-0.19 0.26-0.17 0.23-0.15 0.19-0.12 0.16-0.11 0.11-0.09 0.39-0.2 0.39-0.18 0.4-0.18 0.41-0.16 0.41-0.15 0.41-0.13 0.43-0.13 0.43-0.11 0.43-0.1 0.44-0.09 0.45-0.08 0.45-0.07 0.46-0.05 0.46-0.04 0.47-0.03 0.48-0.02 0.48-0.01 0.71 0.02 0.68 0.04zm-36.24 17.79 0.65 0.36 0.46 0.32 0.29 0.19 0.49 0.54 0.38 0.61 0.27 0.67 0.16 0.74 0.06 0.8-0.13 1.1-0.31 0.87-0.38 0.66-0.35 0.47-0.19 0.28-0.57 0.5-0.62 0.37-0.67 0.27-0.71 0.17-0.77 0.05-1.1-0.44-0.88-0.36-0.67-0.27-0.45-0.19-0.24-0.1-0.49-0.56-0.38-0.63-0.27-0.67-0.16-0.74-0.06-0.78 0.13-1.12 0.31-0.87 0.38-0.64 0.35-0.45 0.19-0.28 0.57-0.46 0.61-0.36 0.67-0.26 0.72-0.16 0.77-0.05 1.08 0.12 0.86 0.3zm-22.46-17.82 0.44 0.04 0.43 0.04 0.41 0.06 0.39 0.07 0.38 0.07 0.37 0.08 0.34 0.09 0.33 0.09 0.32 0.1 0.3 0.09 0.28 0.1 0.27 0.1 0.25 0.1 0.23 0.09 0.22 0.09 0.2 0.08 0.18 0.08 0.17 0.07 0.15 0.06 0.13 0.05 0.11 0.04 0.1 0.03 0.38 0.21 0.36 0.22 0.34 0.22 0.32 0.24 0.31 0.23 0.29 0.24 0.27 0.25 0.26 0.24 0.24 0.24 0.23 0.24 0.21 0.24 0.2 0.23 0.18 0.23 0.18 0.21 0.15 0.21 0.15 0.2 0.14 0.19 0.12 0.18 0.11 0.16 0.11 0.14 0.09 0.13 0.08 0.11 0.07 0.09 0.07 0.07 0.28 0.52 0.26 0.54 0.12 0.27 0.11 0.27 0.11 0.28 0.1 0.28 0.1 0.29 0.09 0.29 0.16 0.58 0.07 0.3 0.06 0.3 0.06 0.31 0.1 0.62 0.04 0.32 0.06 0.64 0.04 0.66 0.01 0.33v0.34l-0.15 2.03h-19.7l0.08 0.3 0.08 0.28 0.09 0.26 0.11 0.26 0.11 0.24 0.12 0.23 0.12 0.21 0.26 0.4 0.26 0.34 0.14 0.16 0.13 0.15 0.13 0.13 0.12 0.13 0.24 0.22 0.11 0.1 0.09 0.09 0.09 0.08 0.08 0.07 0.12 0.12 0.04 0.06 0.51 0.33 0.18 0.1 0.36 0.18 0.19 0.09 0.19 0.08 0.19 0.07 0.4 0.14 0.2 0.06 0.21 0.06 0.21 0.05 0.21 0.04 0.44 0.08 0.46 0.06 0.46 0.04 0.48 0.02h0.25 0.25l0.24-0.01 0.23-0.01 0.23-0.02 0.21-0.02 0.21-0.03 0.2-0.02 0.19-0.03 0.18-0.04 0.17-0.03 0.16-0.03 0.16-0.04 0.14-0.03 0.14-0.04 0.13-0.04 0.12-0.03 0.11-0.03 0.1-0.03 0.18-0.06 0.14-0.04 0.06-0.01 0.05-0.01 0.13-0.05 0.13-0.06 0.13-0.05 0.13-0.06 0.13-0.07 0.12-0.06 0.26-0.14 0.24-0.14 0.13-0.08 0.36-0.24 0.12-0.09 0.12-0.08 0.12-0.09 0.12-0.1 0.12-0.09 0.11-0.1 0.12-0.1 0.11-0.11 0.12-0.1 0.11-0.11 0.3 0.32 0.28 0.31 0.28 0.3 0.26 0.28 0.25 0.27 0.24 0.26 0.23 0.25 0.22 0.24 0.2 0.22 0.38 0.41 0.17 0.19 0.17 0.18 0.15 0.16 0.14 0.15 0.12 0.14 0.12 0.13 0.11 0.11 0.09 0.11 0.09 0.09 0.07 0.08 0.06 0.06 0.05 0.06 0.04 0.04-0.31 0.34-0.33 0.33-0.33 0.32-0.35 0.3-0.36 0.28-0.37 0.27-0.39 0.26-0.39 0.24-0.41 0.22-0.42 0.22-0.43 0.19-0.44 0.19-0.45 0.17-0.47 0.15-0.48 0.14-0.49 0.12-0.5 0.11-0.51 0.1-0.52 0.08-0.54 0.06-0.54 0.05-0.56 0.04-0.57 0.02-0.59 0.01-0.54-0.01-0.52-0.02-0.5-0.04-0.49-0.04-0.47-0.06-0.44-0.07-0.43-0.08-0.41-0.09-0.39-0.09-0.38-0.09-0.35-0.1-0.33-0.1-0.32-0.1-0.3-0.1-0.27-0.1-0.26-0.1-0.24-0.09-0.22-0.09-0.21-0.08-0.18-0.08-0.16-0.06-0.27-0.09-0.11-0.03-0.41-0.22-0.39-0.23-0.38-0.23-0.35-0.24-0.33-0.24-0.31-0.25-0.3-0.24-0.28-0.25-0.26-0.24-0.24-0.24-0.23-0.24-0.21-0.23-0.2-0.23-0.18-0.22-0.17-0.21-0.15-0.2-0.15-0.18-0.13-0.18-0.12-0.16-0.1-0.14-0.1-0.13-0.09-0.11-0.08-0.1-0.07-0.07-0.15-0.25-0.28-0.52-0.13-0.27-0.13-0.26-0.11-0.27-0.12-0.27-0.2-0.56-0.18-0.56-0.08-0.29-0.14-0.58-0.06-0.3-0.1-0.6-0.04-0.3-0.04-0.31-0.03-0.31-0.02-0.31-0.03-0.96 0.01-0.47 0.02-0.45 0.04-0.44 0.05-0.43 0.07-0.41 0.07-0.39 0.08-0.38 0.09-0.36 0.1-0.35 0.1-0.33 0.1-0.31 0.11-0.3 0.11-0.28 0.1-0.27 0.11-0.25 0.1-0.23 0.1-0.21 0.09-0.2 0.09-0.18 0.08-0.17 0.06-0.15 0.06-0.12 0.07-0.21 0.23-0.38 0.24-0.35 0.25-0.34 0.25-0.32 0.25-0.31 0.26-0.28 0.26-0.27 0.26-0.26 0.25-0.24 0.25-0.22 0.25-0.21 0.48-0.38 0.23-0.16 0.21-0.16 0.21-0.14 0.2-0.14 0.18-0.12 0.16-0.11 0.15-0.1 0.14-0.09 0.11-0.08 0.1-0.07 0.07-0.06 0.27-0.14 0.26-0.14 0.28-0.13 0.27-0.12 0.28-0.11 0.27-0.12 0.29-0.1 0.28-0.1 0.58-0.18 0.29-0.08 0.29-0.07 0.6-0.14 0.3-0.05 0.31-0.05 0.3-0.05 0.31-0.04 0.31-0.03 0.32-0.03 0.64-0.04h0.32l0.33-0.01 0.47 0.01 0.45 0.02zm-18.16 0.94v5.81h-6.48v10.6 0.22l0.01 0.21 0.02 0.19 0.03 0.18 0.04 0.18 0.04 0.16 0.04 0.15 0.05 0.14 0.05 0.13 0.1 0.24 0.06 0.1 0.05 0.1 0.06 0.09 0.05 0.08 0.05 0.07 0.04 0.07 0.04 0.06 0.04 0.05 0.03 0.05 0.04 0.08 0.08 0.08 0.08 0.07 0.08 0.08 0.09 0.06 0.09 0.07 0.1 0.06 0.09 0.06 0.2 0.1 0.11 0.05 0.1 0.04 0.11 0.04 0.12 0.03 0.11 0.03 0.12 0.03 0.13 0.02 0.12 0.02 0.13 0.02 0.26 0.02 0.14 0.01h0.14 0.16l0.32-0.02 0.15-0.01 0.3-0.04 0.3-0.06 0.14-0.03 0.15-0.04 0.13-0.04 0.28-0.1 0.13-0.05 0.26-0.12 0.13-0.07 0.24-0.14 0.24-0.16 0.12-0.09 0.16 0.43 0.16 0.41 0.15 0.39 0.14 0.37 0.14 0.36 0.13 0.34 0.12 0.32 0.11 0.3 0.22 0.56 0.09 0.25 0.09 0.23 0.08 0.22 0.08 0.2 0.07 0.18 0.06 0.16 0.06 0.14 0.04 0.13 0.05 0.11 0.03 0.09 0.03 0.08 0.02 0.05-0.15 0.11-0.16 0.11-0.15 0.09-0.32 0.18-0.16 0.08-0.3 0.14-0.16 0.06-0.28 0.12-0.14 0.05-0.26 0.08-0.22 0.08-0.1 0.03-0.09 0.03-0.08 0.02-0.07 0.02-0.05 0.03-0.05 0.01-0.14 0.04-0.15 0.03-0.15 0.04-0.3 0.06-0.15 0.02-0.15 0.03-0.16 0.03-0.3 0.04-0.16 0.02-0.15 0.02-0.16 0.01-0.16 0.02-0.15 0.01-0.48 0.03h-0.16l-0.16 0.01h-0.16-0.17l-0.61-0.01-0.58-0.04-0.55-0.06-0.52-0.08-0.49-0.09-0.45-0.11-0.43-0.13-0.4-0.13-0.37-0.14-0.35-0.15-0.32-0.16-0.29-0.15-0.27-0.15-0.25-0.15-0.23-0.15-0.21-0.13-0.19-0.13-0.17-0.12-0.15-0.1-0.13-0.08-0.12-0.07-0.11-0.04-0.22-0.22-0.22-0.23-0.2-0.24-0.2-0.25-0.18-0.25-0.18-0.27-0.16-0.27-0.15-0.29-0.14-0.29-0.13-0.31-0.12-0.31-0.11-0.32-0.1-0.33-0.09-0.34-0.08-0.35-0.07-0.36-0.1-0.74-0.04-0.39-0.02-0.39-0.02-0.41-0.01-0.41v-10.7h-4.01v-5.81h4.01v-6.34h7.56v6.34h6.48zm48.51 25.46v-26.04h7.55v26.04h-7.55zm-78.04 0v-26.04h7.56v26.04h-7.56zm-25.75-23.47 0.15-0.14 0.15-0.13 0.3-0.24 0.14-0.12 0.15-0.11 0.3-0.2 0.14-0.1 0.15-0.09 0.14-0.09 0.14-0.08 0.14-0.07 0.13-0.08 0.13-0.07 0.13-0.06 0.24-0.12 0.11-0.05 0.11-0.06 0.1-0.04 0.1-0.05 0.18-0.08 0.08-0.03 0.07-0.04 0.06-0.03 0.06-0.02 0.05-0.03 0.04-0.02 0.13-0.05 0.42-0.15 0.42-0.12 0.15-0.04 0.14-0.04 0.15-0.04 0.14-0.03 0.15-0.03 0.15-0.04 0.14-0.02 0.3-0.06 0.15-0.02 0.16-0.03 0.3-0.04 0.16-0.01 0.15-0.02 0.16-0.01 0.15-0.02 0.32-0.02h0.16l0.16-0.01h0.16l0.16-0.01h0.16l0.45 0.17 0.86 0.32 0.8 0.3 0.38 0.14 0.37 0.13 0.36 0.14 0.34 0.12 0.33 0.13 0.32 0.12 0.3 0.11 0.29 0.11 0.28 0.1 0.26 0.1 0.26 0.09 0.23 0.09 0.23 0.08 0.21 0.08 0.2 0.08 0.19 0.07 0.18 0.06 0.16 0.06 0.14 0.06 0.14 0.05 0.12 0.04 0.11 0.04 0.1 0.04 0.08 0.03 0.07 0.03 0.06 0.02 0.19 0.19 0.18 0.19 0.18 0.21 0.17 0.2 0.32 0.44 0.15 0.22 0.15 0.23 0.14 0.24 0.13 0.24 0.13 0.25 0.12 0.26 0.22 0.52 0.1 0.28 0.1 0.27 0.09 0.29 0.16 0.58 0.07 0.3 0.07 0.31 0.06 0.31 0.05 0.32 0.05 0.33 0.04 0.33 0.06 0.68 0.02 0.34 0.02 0.36 0.01 0.36v0.36 14.91h-7.55v-13.74l-0.01-0.3-0.01-0.28-0.02-0.27-0.02-0.26-0.03-0.24-0.03-0.23-0.04-0.23-0.05-0.21-0.05-0.2-0.1-0.38-0.06-0.17-0.12-0.32-0.12-0.28-0.06-0.13-0.07-0.12-0.12-0.22-0.06-0.1-0.05-0.09-0.06-0.09-0.05-0.08-0.04-0.08-0.05-0.07-0.04-0.06-0.06-0.12-0.02-0.05-0.02-0.04-0.09-0.1-0.18-0.18-0.2-0.18-0.1-0.08-0.11-0.07-0.1-0.08-0.22-0.14-0.12-0.06-0.11-0.07-0.12-0.06-0.12-0.05-0.13-0.05-0.12-0.05-0.13-0.05-0.14-0.04-0.13-0.04-0.14-0.04-0.13-0.03-0.15-0.03-0.14-0.03-0.15-0.02-0.14-0.02-0.16-0.02-0.15-0.02-0.16-0.01-0.15-0.01h-0.17-0.16-0.27l-0.26 0.02-0.25 0.02-0.25 0.03-0.23 0.04-0.44 0.1-0.2 0.05-0.2 0.07-0.19 0.06-0.18 0.08-0.17 0.07-0.32 0.16-0.42 0.24-0.24 0.16-0.22 0.16-0.09 0.07-0.1 0.07-0.08 0.07-0.08 0.06-0.07 0.06-0.07 0.05-0.12 0.08-0.05 0.03-0.05 0.02-0.11 0.12-0.1 0.11-0.1 0.13-0.1 0.12-0.09 0.13-0.18 0.28-0.16 0.28-0.08 0.15-0.14 0.3-0.06 0.16-0.07 0.16-0.05 0.17-0.06 0.17-0.05 0.17-0.05 0.18-0.08 0.36-0.04 0.19-0.06 0.38-0.03 0.2-0.02 0.2-0.04 0.42-0.02 0.42v0.22 0.23 12.87h-7.56v-35.92h7.56v12.59l0.14-0.14zm-42.65-10.41h7.27l7.74 24.01 7.89-24.01h7.5l-11.08 33.88h-8.42l-7.46-22.94-7.7 22.94h-8.37l-11.13-33.88h8.13l7.65 23.81 7.98-23.81zm-38.09 7.71 0.66 0.24 0.31 0.12 0.31 0.11 0.3 0.11 0.29 0.11 0.28 0.1 0.28 0.11 0.26 0.1 0.26 0.09 0.26 0.1 0.48 0.18 0.23 0.08 0.22 0.08 0.42 0.16 0.2 0.07 0.19 0.07 0.52 0.2 0.31 0.11 0.15 0.06 0.13 0.05 0.13 0.04 0.12 0.05 0.22 0.08 0.09 0.04 0.09 0.03 0.16 0.06 0.12 0.04 0.05 0.02 0.04 0.02 0.15 0.14 0.14 0.15 0.13 0.16 0.13 0.15 0.13 0.16 0.13 0.17 0.12 0.16 0.11 0.17 0.12 0.18 0.11 0.18 0.1 0.18 0.11 0.18 0.1 0.19 0.09 0.2 0.09 0.19 0.18 0.4 0.16 0.42 0.07 0.22 0.07 0.21 0.07 0.23 0.06 0.22 0.06 0.23 0.05 0.23 0.06 0.24 0.05 0.24 0.04 0.24 0.08 0.5 0.03 0.25 0.06 0.52 0.02 0.26 0.04 0.54 0.03 0.84v0.28 14.91h-7.55v-13.74-0.23l-0.02-0.44-0.01-0.2-0.04-0.4-0.03-0.18-0.02-0.18-0.03-0.17-0.04-0.17-0.03-0.16-0.04-0.15-0.03-0.15-0.04-0.14-0.05-0.13-0.08-0.26-0.05-0.12-0.04-0.11-0.05-0.11-0.04-0.11-0.05-0.09-0.05-0.1-0.04-0.09-0.05-0.08-0.04-0.09-0.04-0.07-0.05-0.08-0.04-0.07-0.04-0.06-0.03-0.06-0.04-0.06-0.03-0.06-0.06-0.1-0.02-0.04-0.02-0.05-0.04-0.08-0.01-0.03-0.06-0.08-0.35-0.35-0.14-0.12-0.24-0.18-0.32-0.2-0.09-0.05-0.08-0.05-0.36-0.16-0.1-0.03-0.09-0.04-0.2-0.06-0.09-0.02-0.1-0.03-0.11-0.02-0.1-0.03-0.1-0.02-0.11-0.01-0.11-0.02-0.1-0.02-0.22-0.02-0.12-0.01h-0.11l-0.12-0.01h-0.11-0.12-0.2l-0.19 0.01-0.18 0.01-0.36 0.04-0.17 0.03-0.16 0.03-0.16 0.04-0.3 0.08-0.15 0.05-0.13 0.05-0.14 0.05-0.13 0.05-0.12 0.06-0.12 0.05-0.12 0.06-0.22 0.12-0.1 0.06-0.1 0.07-0.27 0.18-0.16 0.12-0.07 0.06-0.07 0.05-0.07 0.06-0.12 0.1-0.06 0.04-0.05 0.05-0.1 0.08-0.08 0.06-0.04 0.02-0.04 0.03-0.03 0.01-0.08 0.09-0.07 0.09-0.08 0.09-0.07 0.09-0.06 0.1-0.07 0.09-0.07 0.1-0.06 0.1-0.06 0.11-0.06 0.1-0.06 0.11-0.05 0.11-0.06 0.11-0.05 0.12-0.05 0.11-0.04 0.12-0.05 0.12-0.04 0.12-0.04 0.13-0.04 0.12-0.08 0.26-0.03 0.14-0.03 0.13-0.09 0.42-0.02 0.14-0.02 0.15-0.02 0.14-0.02 0.15-0.02 0.16-0.01 0.15-0.02 0.16-0.01 0.15v0.16l-0.01 0.16-0.01 0.17v0.16 0.17 13.07h-7.55v-13.74-0.31l-0.01-0.29-0.02-0.29-0.02-0.28-0.06-0.54-0.04-0.26-0.05-0.25-0.05-0.24-0.12-0.46-0.08-0.22-0.07-0.21-0.18-0.4-0.09-0.19-0.1-0.18-0.11-0.17-0.12-0.17-0.24-0.3-0.14-0.15-0.13-0.13-0.15-0.13-0.15-0.12-0.16-0.11-0.16-0.1-0.17-0.1-0.18-0.09-0.18-0.08-0.38-0.14-0.2-0.05-0.42-0.1-0.22-0.03-0.23-0.03-0.23-0.02-0.24-0.01h-0.24-0.19l-0.19 0.01-0.18 0.01-0.18 0.02-0.17 0.02-0.17 0.03-0.16 0.03-0.16 0.04-0.15 0.04-0.14 0.04-0.15 0.05-0.39 0.15-0.13 0.06-0.11 0.05-0.12 0.06-0.11 0.06-0.2 0.12-0.1 0.07-0.1 0.06-0.08 0.06-0.09 0.06-0.16 0.12-0.07 0.06-0.07 0.05-0.07 0.06-0.12 0.1-0.06 0.04-0.05 0.05-0.1 0.08-0.04 0.03-0.05 0.03-0.03 0.02-0.04 0.03-0.03 0.01-0.08 0.09-0.07 0.09-0.08 0.09-0.07 0.09-0.07 0.1-0.06 0.09-0.07 0.1-0.06 0.1-0.06 0.11-0.06 0.1-0.06 0.11-0.05 0.11-0.06 0.11-0.05 0.12-0.05 0.11-0.04 0.12-0.05 0.12-0.04 0.12-0.05 0.13-0.04 0.12-0.03 0.13-0.04 0.13-0.03 0.14-0.03 0.13-0.09 0.42-0.02 0.14-0.02 0.15-0.02 0.14-0.02 0.15-0.02 0.16-0.01 0.15-0.02 0.16-0.01 0.15-0.01 0.16v0.16l-0.01 0.17v0.16 0.17 13.07h-7.55v-26.04h7.21v3l0.22-0.24 0.33-0.33 0.12-0.1 0.22-0.2 0.12-0.09 0.22-0.18 0.33-0.24 0.11-0.07 0.1-0.07 0.11-0.07 0.1-0.07 0.11-0.06 0.2-0.12 0.09-0.05 0.09-0.06 0.18-0.09 0.09-0.05 0.24-0.12 0.07-0.04 0.07-0.03 0.07-0.04 0.06-0.03 0.05-0.03 0.06-0.02 0.05-0.03 0.04-0.02 0.04-0.03 0.06-0.04 0.11-0.04 0.1-0.04 0.33-0.12 0.1-0.04 0.11-0.03 0.11-0.04 0.11-0.03 0.11-0.04 0.22-0.06 0.12-0.03 0.22-0.06 0.11-0.02 0.12-0.03 0.11-0.02 0.12-0.03 0.11-0.02 0.12-0.02 0.11-0.02 0.24-0.04 0.12-0.01 0.11-0.02 0.12-0.02 0.36-0.03 0.13-0.01 0.36-0.03h0.13l0.12-0.01h0.12l0.13-0.01h0.12 0.13 0.21l0.2 0.01 0.19 0.01 0.2 0.01 0.19 0.02 0.18 0.01 0.18 0.02 0.18 0.03 0.17 0.02 0.34 0.06 0.32 0.06 0.15 0.04 0.15 0.03 0.14 0.04 0.14 0.03 0.14 0.04 0.26 0.08 0.36 0.12 0.11 0.04 0.11 0.03 0.2 0.08 0.09 0.03 0.09 0.04 0.24 0.09 0.14 0.06 0.12 0.04 0.05 0.02 0.05 0.01 0.05 0.02 0.04 0.01 0.11 0.05 0.22 0.12 0.1 0.05 0.11 0.06 0.1 0.07 0.11 0.06 0.1 0.06 0.1 0.07 0.1 0.06 0.4 0.28 0.09 0.07 0.1 0.08 0.09 0.07 0.09 0.08 0.09 0.07 0.27 0.24 0.17 0.17 0.09 0.08 0.24 0.27 0.08 0.08 0.08 0.1 0.16 0.18 0.08 0.1 0.07 0.09 0.07 0.1 0.08 0.1 0.28 0.4 0.12-0.15 0.24-0.28 0.13-0.14 0.12-0.13 0.26-0.26 0.12-0.11 0.13-0.12 0.13-0.11 0.12-0.11 0.13-0.1 0.12-0.1 0.13-0.1 0.36-0.27 0.24-0.16 0.11-0.07 0.12-0.08 0.11-0.06 0.1-0.07 0.11-0.06 0.3-0.18 0.09-0.05 0.08-0.05 0.09-0.04 0.08-0.05 0.21-0.12 0.12-0.06 0.05-0.03 0.08-0.06 0.16-0.08 0.12-0.05 0.13-0.05 0.12-0.05 0.13-0.05 0.12-0.05 0.13-0.05 0.13-0.04 0.12-0.05 0.52-0.16 0.13-0.03 0.13-0.04 0.13-0.03 0.13-0.04 0.13-0.03 0.14-0.03 0.13-0.03 0.13-0.02 0.14-0.03 0.13-0.02 0.14-0.03 0.14-0.02 0.13-0.02 0.28-0.04 0.14-0.01 0.14-0.02 0.84-0.06h0.15 0.14l0.15-0.01h0.14l0.35 0.13 0.33 0.13zm-48.6 26.17v-26.04h7.55v26.04h-7.55zm-13.94-27.49v27.49h-7.85v-27.49h-10.84v-6.39h29.53v6.39h-10.84zm272.12 7.54-0.76 0.29-0.64 0.34-0.52 0.35-0.42 0.32-0.32 0.24-0.22 0.14-0.45 0.52-0.38 0.55-0.32 0.59-0.27 0.64-0.2 0.67-0.15 0.72-0.09 0.76-0.03 0.8 0.07 1.15 0.2 0.99 0.28 0.83 0.32 0.7 0.34 0.56 0.3 0.45 0.24 0.34 0.14 0.24 0.49 0.46 0.51 0.4 0.56 0.33 0.58 0.28 0.61 0.21 0.65 0.15 0.68 0.09 0.71 0.03 1.01-0.41 0.89-0.37 0.78-0.32 0.65-0.27 0.54-0.22 0.42-0.17 0.29-0.12 0.18-0.07 0.44-0.51 0.38-0.56 0.32-0.59 0.27-0.64 0.2-0.67 0.15-0.72 0.08-0.77 0.03-0.8-0.07-1.15-0.19-0.98-0.28-0.84-0.32-0.69-0.33-0.56-0.31-0.45-0.23-0.34-0.14-0.24-0.48-0.46-0.51-0.39-0.55-0.34-0.58-0.28-0.61-0.21-0.64-0.16-0.68-0.09-0.71-0.03-1.02 0.08-0.89 0.2zm-58.48-0.02-1.44 0.48-0.43 0.15-0.23 0.08-0.55 0.51-0.47 0.57-0.39 0.64-0.32 0.69-0.24 0.75-0.16 0.81h12.82l-0.27-1.13-0.4-0.9-0.46-0.72-0.44-0.54-0.35-0.4-0.21-0.25-0.6-0.46-0.64-0.37-0.69-0.29-0.74-0.2-0.77-0.12-0.82-0.05-1.19 0.41-1.01 0.34zm39.2-17.75 0.65 0.33 0.46 0.29 0.28 0.17 0.47 0.49 0.37 0.53 0.26 0.58 0.16 0.63 0.05 0.67-0.13 1.02-0.3 0.81-0.36 0.61-0.33 0.43-0.19 0.26-0.55 0.44-0.62 0.35-0.68 0.24-0.74 0.15-0.8 0.05-1.11-0.4-0.89-0.32-0.68-0.24-0.46-0.16-0.25-0.09-0.47-0.51-0.36-0.55-0.26-0.6-0.16-0.65-0.05-0.69 0.12-0.97 0.3-0.78 0.37-0.58 0.33-0.42 0.18-0.25 0.56-0.44 0.61-0.34 0.68-0.24 0.74-0.14 0.8-0.05 1.12 0.11 0.88 0.26zm-78.04 0 0.66 0.33 0.46 0.29 0.28 0.17 0.47 0.49 0.36 0.53 0.27 0.58 0.15 0.63 0.06 0.67-0.13 1.02-0.3 0.81-0.37 0.61-0.33 0.43-0.18 0.26-0.56 0.44-0.61 0.35-0.68 0.24-0.74 0.15-0.8 0.05-1.11-0.4-0.9-0.32-0.68-0.24-0.46-0.16-0.24-0.09-0.47-0.51-0.37-0.55-0.26-0.6-0.15-0.65-0.06-0.69 0.13-0.97 0.3-0.78 0.36-0.58 0.33-0.42 0.19-0.25 0.55-0.44 0.62-0.34 0.68-0.24 0.74-0.14 0.8-0.05 1.12 0.11 0.87 0.26zm-155.09 0 0.65 0.33 0.46 0.29 0.28 0.17 0.47 0.49 0.37 0.53 0.26 0.58 0.16 0.63 0.05 0.67-0.13 1.02-0.3 0.81-0.36 0.61-0.33 0.43-0.19 0.26-0.55 0.44-0.62 0.35-0.68 0.24-0.74 0.15-0.8 0.05-1.11-0.4-0.89-0.32-0.68-0.24-0.46-0.16-0.25-0.09-0.47-0.51-0.36-0.55-0.26-0.6-0.16-0.65-0.05-0.69 0.12-0.97 0.3-0.78 0.37-0.58 0.33-0.42 0.18-0.25 0.56-0.44 0.61-0.34 0.68-0.24 0.74-0.14 0.8-0.05 1.12 0.11 0.88 0.26zm123.2-87.24 1.52 0.15 1.5 0.21 1.49 0.28 1.46 0.33 1.44 0.38 1.42 0.44 1.39 0.5 1.37 0.55 1.34 0.59 1.31 0.65 1.29 0.7 1.25 0.74 1.22 0.79 1.19 0.84 1.15 0.88 1.12 0.92 1.08 0.97 1.05 1 1 1.05 0.97 1.08 0.92 1.12 0.88 1.15 0.84 1.19 0.79 1.22 0.74 1.25 0.7 1.28 0.65 1.32 0.6 1.34 0.54 1.37 0.5 1.39 0.44 1.42 0.39 1.44 0.33 1.46 0.27 1.49 0.21 1.5 0.16 1.52 0.09 1.54 0.03 1.56-0.03 1.55-0.09 1.54-0.16 1.52-0.21 1.51-0.27 1.48-0.33 1.46-0.39 1.44-0.44 1.42-0.49 1.4-0.55 1.36-0.6 1.34-0.65 1.32-0.7 1.28-0.74 1.25-0.79 1.22-0.84 1.19-0.88 1.15-0.92 1.12-0.96 1.08-1.01 1.04-1.04 1.01-1.08 0.96-1.12 0.93-1.16 0.88-1.18 0.83-1.22 0.79-1.26 0.75-1.28 0.69-1.31 0.65-1.34 0.6-1.37 0.55-1.4 0.49-1.41 0.44-1.45 0.39-1.46 0.33-1.48 0.27-1.51 0.22-1.52 0.15-1.54 0.09-1.55 0.04h-37.73l1.24-0.74 0.6-0.35 0.58-0.35 0.57-0.33 0.56-0.33 0.54-0.32 0.53-0.31 0.52-0.31 0.5-0.29 0.96-0.57 0.45-0.27 0.45-0.26 0.43-0.26 0.82-0.48 0.38-0.23 0.38-0.22 0.36-0.21 0.34-0.2 0.33-0.2 0.32-0.19 0.3-0.18 0.29-0.17 0.28-0.16 0.26-0.15 0.24-0.15 0.24-0.14 0.21-0.12 0.21-0.13 0.19-0.11 0.34-0.2 0.14-0.09 0.14-0.08 0.12-0.07 0.1-0.06 0.1-0.05 0.07-0.05-0.64-0.53-0.62-0.53-0.62-0.56-0.6-0.56-0.59-0.58-0.58-0.59-0.56-0.6-0.55-0.62-0.54-0.63-0.52-0.64-0.51-0.65-0.5-0.66-0.48-0.68-0.47-0.68-0.45-0.7-0.44-0.7-0.42-0.72-0.41-0.72-0.39-0.74-0.38-0.74-0.36-0.76-0.34-0.76-0.32-0.78-0.31-0.78-0.3-0.79-0.27-0.8-0.26-0.8-0.24-0.81-0.22-0.83-0.21-0.82-0.18-0.84-0.17-0.84-0.15-0.85-0.13-0.86-0.11-0.86-0.09-0.87-0.07-0.87-0.05-0.88-0.03-0.88-0.01-0.89 0.03-1.56 0.09-1.54 0.16-1.52 0.21-1.5 0.27-1.49 0.33-1.46 0.39-1.44 0.44-1.42 0.49-1.39 0.55-1.37 0.6-1.34 0.65-1.32 0.7-1.28 0.74-1.25 0.79-1.22 0.84-1.19 0.88-1.15 0.92-1.12 0.96-1.08 1.01-1.05 1.04-1 1.08-0.97 1.12-0.92 1.15-0.88 1.19-0.84 1.22-0.79 1.25-0.74 1.29-0.7 1.31-0.65 1.34-0.59 1.37-0.55 1.39-0.5 1.42-0.44 1.44-0.38 1.46-0.33 1.49-0.28 1.5-0.21 1.52-0.15 1.54-0.1 1.56-0.03 1.55 0.03 1.54 0.1zm9.44 35-0.79 1.17-0.29 1.44 0.29 1.43 0.79 1.17 1.16 0.79 1.44 0.29 1.43-0.29 1.17-0.79 0.8-1.17 0.29-1.43-0.29-1.44-0.8-1.17-1.17-0.79-1.43-0.29-1.44 0.29-1.16 0.79zm-15.14 0-0.78 1.17-0.29 1.44 0.29 1.43 0.78 1.17 1.17 0.79 1.44 0.29 1.43-0.29 1.17-0.79 0.79-1.17 0.29-1.43-0.29-1.44-0.79-1.17-1.17-0.79-1.43-0.29-1.44 0.29-1.17 0.79zm-15.13 0-0.8 1.17-0.29 1.44 0.29 1.43 0.8 1.17 1.17 0.79 1.43 0.29 1.44-0.29 1.17-0.79 0.79-1.17 0.29-1.43-0.29-1.44-0.79-1.17-1.17-0.79-1.44-0.29-1.43 0.29-1.17 0.79z"/>
</defs>
<use fill="white" xlink:href="#a"/>
</svg>
